<svg width="1302" height="1306" xmlns="http://www.w3.org/2000/svg" xmlns:xlink="http://www.w3.org/1999/xlink" xml:space="preserve" overflow="hidden"><g transform="translate(-1338 -522)"><g><rect x="1340" y="526" width="1299" height="1299" fill="#FFFFFF" fill-opacity="1"/><path d="M1405 1175.5C1405 852.689 1666.69 591 1989.5 591 2312.31 591 2574 852.689 2574 1175.5 2574 1498.31 2312.31 1760 1989.5 1760 1666.69 1760 1405 1498.31 1405 1175.5Z" fill="#F37726" fill-rule="evenodd" fill-opacity="1"/><path d="M1340 1175.5C1340 936.637 1630.79 743 1989.5 743 2348.21 743 2639 936.637 2639 1175.5 2639 1414.36 2348.21 1608 1989.5 1608 1630.79 1608 1340 1414.36 1340 1175.5Z" fill="#FFFFFF" fill-rule="evenodd" fill-opacity="1"/><path d="M1989.79 808.058 2164.87 983.143 1989.79 1158.23 1814.7 983.143Z" fill="#00E7DD" fill-rule="nonzero" fill-opacity="1"/><path d="M1797.23 1000.62 1972.32 1175.7 1797.23 1350.79 1622.14 1175.7Z" fill="#00D8A2" fill-rule="nonzero" fill-opacity="1"/><path d="M1989.62 1193 2164.7 1368.09 1989.62 1543.17 1814.53 1368.09Z" fill="#09AF8E" fill-rule="nonzero" fill-opacity="1"/><path d="M2182.18 1000.45 2357.26 1175.53 2182.18 1350.62 2007.09 1175.53Z" fill="#00636E" fill-rule="nonzero" fill-opacity="1"/><path d="M1405 758C1405 728.177 1429.18 704 1459 704 1488.82 704 1513 728.177 1513 758 1513 787.823 1488.82 812 1459 812 1429.18 812 1405 787.823 1405 758Z" fill="#616262" fill-rule="evenodd" fill-opacity="1"/><path d="M2443 656.5C2443 620.325 2472.33 591 2508.5 591 2544.67 591 2574 620.325 2574 656.5 2574 692.674 2544.67 722 2508.5 722 2472.33 722 2443 692.674 2443 656.5Z" fill="#767677" fill-rule="evenodd" fill-opacity="1"/><path d="M1405 1673.5C1405 1625.73 1443.73 1587 1491.5 1587 1539.27 1587 1578 1625.73 1578 1673.5 1578 1721.27 1539.27 1760 1491.5 1760 1443.73 1760 1405 1721.27 1405 1673.5Z" fill="#9E9E9E" fill-rule="evenodd" fill-opacity="1"/></g></g></svg>